<?xml version="1.0" encoding="utf-8"?>
<!-- Generator: Adobe Illustrator 22.1.0, SVG Export Plug-In . SVG Version: 6.00 Build 0)  -->
<svg version="1.1" id="Calque_1" xmlns="http://www.w3.org/2000/svg" xmlns:xlink="http://www.w3.org/1999/xlink" x="0px" y="0px"
	 viewBox="0 0 334.4 294.3" style="enable-background:new 0 0 334.4 294.3;" xml:space="preserve">
<style type="text/css">
	.st0{opacity:0.5;}
	.st1{fill:#E3216F;}
	.st2{fill:#63B22F;}
	.st3{opacity:0.72;}
	.st4{fill:#FEEB20;}
	.st5{fill:#3F78BC;}
	.st6{fill:#FFFFFF;}
	.st7{opacity:0.5;fill:#E3216F;}
	.st8{opacity:0.5;fill:#3F78BC;}
</style>
<g>
	<g class="st0">
		<circle class="st1" cx="84.7" cy="85.2" r="84.7"/>
	</g>
	<g class="st0">
		<circle class="st2" cx="248.7" cy="158.1" r="85.7"/>
	</g>
	<g class="st3">
		<circle class="st4" cx="94.2" cy="231.4" r="63.3"/>
	</g>
	<g class="st0">
		<circle class="st5" cx="155.7" cy="150.8" r="124.8"/>
	</g>
	<g>
		<path class="st6" d="M75.4,103.7l0.1,2.7v0.4c0.2,5,0.3,12.5,0.3,22.6v2.2h6.6c1.2,0.8,1.9,1.6,1.9,2.4s-0.2,1.4-0.6,1.9
			c-0.4,0.5-0.9,0.7-1.3,0.7c-0.5,0-1-0.1-1.6-0.3c-0.5,0.1-1,0.2-1.6,0.2l-2.8-0.1c-0.6,0.7-1.3,1.1-2.2,1.1
			c-0.9,0-1.6-0.3-2.2-0.8c-0.6-0.5-0.9-1.2-0.9-1.9l0.5-3.8c0-6.6-0.3-16.4-0.9-29.5c-0.6-13.1-0.9-23-0.9-29.5
			c0-0.5,0.2-1,0.6-1.3c0.4-0.3,1-0.5,1.6-0.5c0.6,0,1.2,0.2,1.7,0.7c0.5,0.5,0.8,1.1,0.8,1.8L75.4,103.7z"/>
		<path class="st6" d="M89.3,90.8c-0.5-0.1-0.8-0.6-0.8-1.6c0-1,0.3-2.9,0.9-5.8c0.6-2.9,1.5-5.8,2.6-8.8c1.2-2.9,2.4-4.4,3.6-4.4
			c1,0,1.6,0.6,1.6,1.9c0,2.5-0.4,5.2-1.3,8.1c-0.8,2.9-1.9,5.4-3.2,7.5C91.5,89.8,90.3,90.8,89.3,90.8z"/>
		<path class="st6" d="M103.2,62.8c-0.4,0.7-0.7,1.2-1,1.6c-0.3,0.4-0.7,0.6-1.1,0.6c-0.4,0-0.8-0.3-1.1-0.8
			c-0.4-0.5-0.6-1.2-0.6-2.1c0-0.9,0.5-2.6,1.4-5.2c0.9-2.6,2.1-5,3.4-7.3c1.4-2.3,2.5-3.5,3.5-3.5s2.2,2.2,3.5,6.6
			c1.4,4.4,2.1,7.8,2.1,10.1c0,0.7-0.3,1.2-0.8,1.7c-0.5,0.5-1.1,0.7-1.8,0.7c-1.6,0-2.6-2.7-3.3-8c-0.3-2.4-0.5-3.8-0.5-4.1
			c0,0.2-0.2,0.9-0.7,2.1c-0.4,1.2-0.8,2.2-1.1,3.1c-0.3,0.9-0.6,1.7-1,2.5C103.9,61.5,103.6,62.2,103.2,62.8z M113,75.5l-1.5,0
			c-0.6,0-1,0.1-1.2,0.4c-0.3,0.2-0.4,0.7-0.4,1.4c0,5.6,0.4,14.1,1.1,25.3c0.7,11.2,1.1,19.7,1.1,25.3v3.3c0.6-0.1,1.2-0.1,1.8-0.1
			c2.4,0,3.6,1,3.6,3v0.5l-2.2,1.5l-5.9,0.2c-5,0-7.5-0.9-7.5-2.6c0-1.4,0.9-2.1,2.6-2.1l1.8,0.1c0.8,0,1.3-0.7,1.3-2
			c0-4.5-0.3-11.1-0.8-20c-0.5-8.9-0.8-15.6-0.8-20l0.2-8.8c0-1.9-0.1-3.5-0.2-4.8c-0.8,0.3-1.4,0.4-2,0.4c-1.4,0-2-0.7-2-2.1
			c0-0.7,0.4-1.3,1.3-1.8c0.9-0.5,2-0.9,3.3-1.1c2.4-0.4,4.2-0.6,5.4-0.6c1.2,0,2,0.2,2.5,0.7c0.5,0.5,0.8,1,0.8,1.6
			s-0.2,1.2-0.6,1.6C114,75.3,113.5,75.5,113,75.5z"/>
		<path class="st6" d="M126.6,103.7l0.1,2.7v0.4c0.2,5,0.3,12.5,0.3,22.6v2.2h6.6c1.2,0.8,1.9,1.6,1.9,2.4s-0.2,1.4-0.6,1.9
			c-0.4,0.5-0.9,0.7-1.3,0.7c-0.5,0-1-0.1-1.6-0.3c-0.5,0.1-1,0.2-1.6,0.2l-2.8-0.1c-0.6,0.7-1.3,1.1-2.2,1.1s-1.6-0.3-2.2-0.8
			c-0.6-0.5-0.9-1.2-0.9-1.9l0.5-3.8c0-6.6-0.3-16.4-0.9-29.5c-0.6-13.1-0.9-23-0.9-29.5c0-0.5,0.2-1,0.6-1.3c0.4-0.3,1-0.5,1.6-0.5
			c0.6,0,1.2,0.2,1.7,0.7c0.5,0.5,0.8,1.1,0.8,1.8L126.6,103.7z"/>
		<path class="st6" d="M149,104.8l-2.2-0.1c-0.8,0-1.4,0.2-1.8,0.6V132c3-0.2,4.6-0.3,4.8-0.3c3.3,0,4.9,0.8,4.9,2.3v0.3
			c-0.4,0.8-1.1,1.4-2,1.8c-1,0.4-1.8,0.7-2.5,0.7c-0.7,0.1-1.7,0.1-2.8,0.1h-2.7c-2.1,0-3.5-0.4-4-1.3c-0.2-0.4-0.3-0.9-0.3-1.6
			V83.8c0-1-0.2-2.5-0.6-4.4c-0.4-1.9-0.6-3.4-0.6-4.4v-0.3c1-1.6,1.7-2.6,2.2-3l6.4-0.8c0.9,0,1.8,0.3,2.6,0.8
			c0.9,0.5,1.3,1.2,1.3,2.1c0,1.7-1.3,2.6-3.9,2.6l-2.5-0.1c-0.4,0-0.7,0-0.9,0l0.7,14.3c0,1.2-0.1,2.8-0.2,5.1
			c-0.1,2.2-0.2,3.8-0.2,4.8c0.3-0.1,0.7-0.2,1.3-0.3c1.2-0.3,2.1-0.5,2.8-0.5s1.3,0.2,1.8,0.7c0.5,0.5,0.8,1.1,0.8,1.7
			c0,0.7-0.2,1.3-0.6,1.8C150.3,104.5,149.7,104.8,149,104.8z"/>
		<path class="st6" d="M188.1,136.4c-1.8,0-2.7-0.7-2.7-2.2v-11.3c-0.8-0.6-2.3-1-4.4-1.4c-2.1-0.4-4-0.6-5.7-0.8
			c-0.6,1-1.1,2.5-1.5,4.4c-0.4,1.9-0.8,3.8-1.2,5.8c-0.4,1.9-1,3.5-1.6,4.6c-2.3,0-3.5-0.6-3.8-1.7c0.8-1.1,2.1-6.9,3.8-17.3
			c1.8-10.4,3.2-18.5,4.4-24.4s2.4-10.8,3.7-14.8c1.3-4,2.6-6,3.8-6c1.2,0,2.1,0.3,2.8,0.8c0,2.1,0.6,7.6,1.7,16.7
			c1.1,9.1,1.7,14.9,1.7,17.6c0,2.7,0.3,7.1,0.9,13.3c0.6,6.2,0.9,10.8,0.9,13.9C191,135.5,190,136.4,188.1,136.4z M184.5,108.2
			c-0.5-5.1-1-10-1.4-14.6c-0.4-4.6-0.6-7.4-0.6-8.4c0-1,0-1.5,0-1.7c-0.9,0.9-2.2,6.1-3.9,15.5c-1.7,9.4-2.6,15.4-2.7,17.9
			c2.4,0.6,4.4,1,6,1c1.6,0,2.8-0.1,3.4-0.3C185.3,116.4,185,113.3,184.5,108.2z"/>
		<path class="st6" d="M195.8,89.3l0.1-13.5c-0.4-0.5-0.6-1.1-0.6-1.8c0-0.7,0.2-1.3,0.7-1.9c0.5-0.5,1.1-0.8,1.8-0.8
			c2.1,0,3.1,2.1,3.1,6.2l0.8,30.1c0.3,0.8,0.6,2.3,0.9,4.6c0.2,2.3,0.4,4.1,0.4,5.4c0,1.3,0.2,2.9,0.6,4.7c0.4,1.9,1,3.8,1.7,5.7
			c0.7,1.9,1.7,3.6,2.9,4.9c1.2,1.4,2.4,2,3.5,2c1.1,0,1.9-0.3,2.5-0.8c0.5-0.5,0.9-1.3,1.1-2.2c0.3-1.5,0.5-3.1,0.5-4.8v-16.9
			c0-1.8-0.2-4.6-0.5-8.2c-0.4-3.6-0.5-6.3-0.5-8.2v-0.6l-0.2-5l-0.6-14.8c0-0.7,0.4-1.3,1.1-1.7c0.7-0.4,1.4-0.7,2.2-0.7l2.1,2v1.4
			l-0.6,5.3c0,4.8,0.3,12.1,0.8,21.8c0.5,9.7,0.8,16.3,0.8,19.7c0,3.4,0,5.7-0.1,6.8c-0.1,1.1-0.3,2.4-0.7,3.7
			c-0.3,1.3-0.8,2.4-1.4,3.2c-1.4,2-3.5,3-6.3,3c-3.5,0-6.4-1.5-8.5-4.6c-2.3-3.3-3.8-7.2-4.7-11.8c-1.1-5.4-1.7-10.1-1.9-14.2
			C195.9,101.4,195.8,95.3,195.8,89.3z"/>
		<path class="st6" d="M240.4,135.5c-1.7,0-2.5-0.7-2.5-2.1c0-3-0.3-5.6-0.8-8c-0.5-2.3-1.1-4.7-1.6-7c-0.6-2.3-1-3.9-1.1-4.7
			c-0.1,0.6-0.4,1.9-0.7,4c-0.3,2.1-0.7,4.1-1.1,6.1c-0.4,2-0.8,4.1-1.4,6.2c-1.2,4.7-2.6,7-4.2,7.1c-0.6,0-1.1-0.2-1.6-0.5
			c-0.5-0.4-0.7-0.8-0.7-1.4c0-2.2,0.6-5.4,1.8-9.7c1.2-4.3,2.4-8.6,3.6-13.1s1.8-7.8,1.8-10.1c0-2.3-0.3-4.8-0.8-7.4
			c-0.6-2.6-1.3-5-1.9-7c-1.9-5.5-2.8-10-2.7-13.6V74c0.5-1.2,1.2-1.8,2-1.8c0.8,0,1.5,0.5,2.1,1.5c0.6,1,1.1,2.3,1.5,4
			c0.5,1.7,0.8,3.3,1.1,4.7c0.3,1.5,0.6,3.1,0.9,4.9c0.3,1.8,0.5,2.8,0.6,3.2c0.1-0.3,0.5-2.3,1.1-6c1.6-9,3.2-13.6,4.9-13.6
			c0.6,0,1.2,0.2,1.8,0.5c0.5,0.3,0.8,1,0.8,2c0,1-1.1,5.7-3.2,13.9c-2.2,8.3-3.2,13.4-3.2,15.4c0,0.7,0.7,4.6,2.2,11.8
			c1.5,7.2,2.2,11,2.3,11.3v0.5c0.1,0.7,0.3,1.8,0.8,3.2c0.5,1.4,0.7,2.5,0.7,3.2c0,0.7-0.2,1.3-0.7,1.8
			C241.6,135.2,241.1,135.5,240.4,135.5z"/>
		<path class="st6" d="M84.9,208.7l-2.2-0.1c-0.8,0-1.4,0.2-1.8,0.6v26.7c3-0.2,4.6-0.3,4.8-0.3c3.3,0,4.9,0.8,4.9,2.3v0.3
			c-0.4,0.8-1.1,1.4-2,1.8c-1,0.4-1.8,0.7-2.5,0.7c-0.7,0.1-1.7,0.1-2.8,0.1h-2.7c-2.1,0-3.5-0.4-4-1.3c-0.2-0.4-0.3-0.9-0.3-1.6
			v-50.3c0-1-0.2-2.5-0.6-4.4c-0.4-1.9-0.6-3.4-0.6-4.4v-0.3c1-1.6,1.7-2.6,2.2-3l6.4-0.8c0.9,0,1.8,0.3,2.6,0.8
			c0.9,0.5,1.3,1.2,1.3,2.1c0,1.7-1.3,2.6-3.9,2.6l-2.5-0.1c-0.4,0-0.7,0-0.9,0l0.7,14.3c0,1.2-0.1,2.8-0.2,5.1
			c-0.1,2.2-0.2,3.8-0.2,4.8c0.3-0.1,0.7-0.2,1.3-0.3c1.2-0.3,2.1-0.5,2.8-0.5c0.7,0,1.3,0.2,1.8,0.7c0.5,0.5,0.8,1.1,0.8,1.7
			c0,0.7-0.2,1.3-0.6,1.8C86.1,208.4,85.6,208.7,84.9,208.7z"/>
		<path class="st6" d="M94.7,195l0.6-15.9v-0.5c0-2.9,0.6-4.3,1.9-4.3c1.2,0,2.7,2.7,4.6,8c3.6,9.7,7.8,25.8,12.8,48.1l0.1,0.4
			l0.3-30.2v-25.6c0.3-1.4,1.3-2.2,2.8-2.2c1.5,0,2.3,1.1,2.3,3.4v0.5c-0.3,0.7-0.5,1.6-0.5,2.5l-0.5,32v26.5c0,0.9-0.2,1.7-0.7,2.6
			c-0.5,0.8-1.1,1.3-1.8,1.3c-1.2,0-3.6-5.9-7.1-17.8c-3.5-11.9-7-24.6-10.4-38.3v28.4c0,2.8,0.2,6.9,0.6,12.3
			c0.4,5.5,0.6,9.6,0.6,12.3c0,0.5-0.3,1-1,1.3c-0.6,0.4-1.5,0.5-2.5,0.5s-1.5-0.5-1.5-1.4l0.4-6.2c0-3-0.2-7.8-0.5-14.5
			c-0.4-6.7-0.5-10.8-0.5-12.3V195z"/>
		<path class="st6" d="M132.7,236.4l-0.2,0.5c0.1,0.3,0.2,0.8,0.2,1.3s-0.3,1.1-0.8,1.5c-0.5,0.5-1.2,0.7-2.1,0.7
			c-1.7,0-2.5-1.8-2.5-5.5c0-5.5-0.3-15.9-0.9-31.2s-1.2-23.4-1.8-24.3c0-3,2.1-4.6,6.1-4.8c0.6,0,1.5,0,2.5,0
			c1.1,0,1.9,0.2,2.5,0.6c0.6,0.4,0.9,1.2,0.9,2.4c0,1.2-0.8,1.8-2.4,1.8l-2.1-0.1c-1.6,0-2.4,0.3-2.4,1c0,2.7,0.2,6.6,0.6,11.8
			c0.4,5.2,0.6,9,0.7,11.5c0.4-0.1,0.9-0.2,1.5-0.3c1.5-0.4,2.5-0.6,3.3-0.6c0.7,0,1.3,0.3,1.8,0.8c0.5,0.5,0.7,1.2,0.7,1.8
			c0,1.9-2.4,2.8-7.2,2.8c0,3.1,0.3,7.8,0.8,14.1C132.5,228.5,132.7,233.2,132.7,236.4z"/>
		<path class="st6" d="M160.3,240.3c-1.8,0-2.7-0.7-2.7-2.2v-11.3c-0.8-0.6-2.3-1-4.4-1.4c-2.1-0.4-4-0.6-5.7-0.8
			c-0.6,1-1.1,2.5-1.5,4.4c-0.4,1.9-0.8,3.8-1.2,5.8c-0.4,1.9-1,3.5-1.6,4.6c-2.3,0-3.5-0.6-3.8-1.7c0.8-1.1,2.1-6.9,3.8-17.3
			c1.8-10.4,3.2-18.5,4.4-24.4c1.1-5.9,2.4-10.8,3.7-14.8c1.3-4,2.6-6,3.8-6c1.2,0,2.1,0.3,2.8,0.8c0,2.1,0.6,7.6,1.7,16.7
			c1.1,9.1,1.7,14.9,1.7,17.6s0.3,7.1,0.9,13.3c0.6,6.2,0.9,10.8,0.9,13.9C163.2,239.3,162.3,240.3,160.3,240.3z M156.7,212.1
			c-0.5-5.1-1-10-1.4-14.6c-0.4-4.6-0.6-7.4-0.6-8.4c0-1,0-1.5,0-1.7c-0.9,0.9-2.2,6.1-3.9,15.5c-1.7,9.4-2.6,15.4-2.7,17.9
			c2.4,0.6,4.4,1,6,1c1.6,0,2.8-0.1,3.4-0.3C157.5,220.3,157.2,217.2,156.7,212.1z"/>
		<path class="st6" d="M168.6,195l0.6-15.9v-0.5c0-2.9,0.6-4.3,1.9-4.3c1.2,0,2.7,2.7,4.6,8c3.6,9.7,7.8,25.8,12.8,48.1l0.1,0.4
			l0.3-30.2v-25.6c0.3-1.4,1.3-2.2,2.8-2.2c1.5,0,2.3,1.1,2.3,3.4v0.5c-0.3,0.7-0.5,1.6-0.5,2.5l-0.5,32v26.5c0,0.9-0.2,1.7-0.7,2.6
			c-0.5,0.8-1.1,1.3-1.8,1.3c-1.2,0-3.6-5.9-7.1-17.8c-3.5-11.9-7-24.6-10.4-38.3v28.4c0,2.8,0.2,6.9,0.6,12.3
			c0.4,5.5,0.6,9.6,0.6,12.3c0,0.5-0.3,1-1,1.3c-0.6,0.4-1.5,0.5-2.5,0.5s-1.5-0.5-1.5-1.4l0.4-6.2c0-3-0.2-7.8-0.5-14.5
			c-0.4-6.7-0.5-10.8-0.5-12.3V195z"/>
		<path class="st6" d="M210.5,190.1l-0.2,11.2l0.8,19.9l0.7,15.6c0,2.8-0.8,4.2-2.5,4.2c-1,0-1.7-0.5-2.1-1.4
			c-0.5-0.9-0.7-1.9-0.7-3l0.7-13.8c0-3-0.2-7.5-0.6-13.5c-0.4-6-0.6-10.5-0.6-13.5l0.1-7.6c0-4.1-0.3-6.8-0.8-8.1l-4.7,0.5
			c-0.7,0-1.4-0.2-2-0.7c-0.6-0.4-0.9-1-0.9-1.7c0-0.7,0.7-1.3,2.1-1.8c1.4-0.5,3.1-0.9,5.1-1.1c3.5-0.4,6.4-0.6,8.7-0.6
			c0.7,0,1.3,0.2,1.9,0.7c0.6,0.5,0.9,1.1,0.9,1.8c0,0.7-0.3,1.3-0.8,1.7c-0.5,0.4-1.1,0.6-1.9,0.6l-3.1-0.2c-0.4,0-0.7,0-0.9,0
			C210.3,182.8,210.5,186.3,210.5,190.1z"/>
		<path class="st6" d="M219.3,239.3c0-1.5,0.6-2.3,1.9-2.3c0.6,0,1.5,0.2,2.6,0.7c1.1,0.4,2,0.7,2.7,0.7c0.8,0,1.6-0.5,2.5-1.5
			c0.9-1,1.6-2.2,2.1-3.7c1-3,1.6-5.7,1.6-8.1s-0.4-5-1.3-7.8c-0.8-2.8-1.9-5.4-3.1-7.8c-1.2-2.4-2.4-4.8-3.7-7.3
			c-2.9-5.8-4.4-11-4.4-15.8c0-4.5,1.4-8,4.3-10.6c1.5-1.4,3.3-2,5.4-2c1,0,2.1,0.3,3,0.9c1,0.6,1.7,1.3,2.1,2.3l-1.5,1.9
			c-1.4,0-2.6-0.3-3.4-0.8c-1.1,0.1-2,0.6-2.8,1.5c-1.4,1.7-2.2,3.7-2.2,6.2c0,2.4,0.3,4.8,0.9,7.1c0.6,2.3,1.4,4.4,2.3,6.2
			c0.9,1.8,1.9,3.8,3,6c1.1,2.1,2.1,4.2,3,6.2c2.2,4.6,3.3,9.5,3.3,14.8c0,3.7-0.9,7.3-2.8,10.7c-0.9,1.6-2.1,3-3.7,4
			c-1.6,1.1-3.3,1.6-5.3,1.6c-2.1,0-3.7-0.3-4.9-0.9C219.9,240.7,219.3,240,219.3,239.3z"/>
	</g>
	<g>
		<path class="st6" d="M37.5,109.2c-0.5-0.2-0.7-0.5-0.6-1c0.1-0.2,0.3-0.5,0.6-0.8c0.3-0.3,0.5-0.6,0.6-0.9c0.1-0.3,0-0.6-0.2-1.1
			c-0.2-0.5-0.6-0.9-1-1.2c-0.9-0.8-1.8-1.3-2.7-1.7c-0.9-0.3-1.8-0.5-2.9-0.6c-1.1-0.1-2.1-0.1-3.2,0c-1,0.1-2,0.2-3.1,0.3
			c-2.4,0.3-4.5,0.1-6.2-0.6c-1.6-0.6-2.7-1.6-3.2-2.9c-0.3-0.7-0.3-1.4,0-2.2c0.1-0.4,0.4-0.7,0.7-1c0.3-0.3,0.7-0.4,1.1-0.4
			l0.5,0.8c-0.2,0.5-0.4,0.9-0.8,1.1c-0.1,0.4-0.1,0.8,0.2,1.2c0.4,0.7,1,1.3,1.9,1.6c0.9,0.3,1.7,0.5,2.6,0.6
			c0.9,0.1,1.7,0.1,2.5,0c0.8-0.1,1.6-0.2,2.5-0.3c0.9-0.1,1.8-0.2,2.6-0.2c1.9-0.1,3.8,0.1,5.7,0.9c1.3,0.5,2.5,1.3,3.4,2.5
			c0.5,0.5,0.8,1.2,0.9,1.9c0.2,0.7,0.1,1.4-0.2,2.1c-0.3,0.7-0.6,1.3-1,1.6C38.1,109.2,37.8,109.3,37.5,109.2z"/>
		<path class="st6" d="M44,94.8c-0.3,0.6-0.7,0.8-1.2,0.6L39,93.5c-0.3,0.2-0.7,0.6-1.2,1.3c-0.5,0.7-0.9,1.3-1.2,1.8
			c0.3,0.4,0.7,0.8,1.3,1.2c0.6,0.4,1.2,0.9,1.8,1.3c0.6,0.5,1,0.9,1.3,1.3c-0.4,0.8-0.8,1.1-1.2,1c-0.3-0.5-2-1.8-5.3-4.1
			c-3.3-2.3-5.8-4.1-7.7-5.4c-1.8-1.3-3.3-2.6-4.5-3.7c-1.2-1.1-1.6-1.9-1.4-2.3c0.2-0.4,0.4-0.7,0.7-0.8c0.7,0.3,2.7,1,6,2.1
			c3.3,1.1,5.4,1.8,6.3,2.3c0.9,0.4,2.5,1,4.7,1.8c2.2,0.8,3.9,1.4,4.9,1.9C44.2,93.7,44.4,94.1,44,94.8z M33.8,91.5
			c-1.8-0.6-3.6-1.3-5.2-1.9c-1.7-0.6-2.7-1-3-1.1c-0.3-0.2-0.5-0.3-0.6-0.3c0.2,0.5,1.7,1.7,4.7,3.8c3,2.1,4.9,3.4,5.7,3.8
			c0.6-0.7,1-1.4,1.3-1.9c0.3-0.6,0.4-1,0.5-1.2C36.7,92.6,35.6,92.2,33.8,91.5z"/>
		<path class="st6" d="M27,77.9l-0.3,0.5c-0.1,0.2-0.1,0.3-0.1,0.5c0,0.1,0.2,0.3,0.4,0.4c1.9,1,4.7,2.5,8.6,4.3
			c3.9,1.8,6.7,3.3,8.6,4.3l1.1,0.6c0.1-0.2,0.2-0.4,0.3-0.6c0.4-0.8,1-1,1.7-0.6l0.2,0.1l0.1,1l-1,2c-0.9,1.7-1.7,2.3-2.2,2
			C43.8,92,43.7,91.6,44,91l0.4-0.6c0.2-0.3,0-0.5-0.4-0.8c-1.5-0.8-3.7-2-6.8-3.4c-3-1.5-5.3-2.6-6.8-3.4l-2.9-1.7
			c-0.6-0.3-1.2-0.6-1.6-0.8c-0.1,0.3-0.1,0.5-0.2,0.7c-0.2,0.4-0.6,0.5-1.1,0.3c-0.2-0.1-0.4-0.4-0.4-0.8c0-0.4,0.1-0.8,0.2-1.3
			c0.3-0.9,0.6-1.5,0.8-1.9s0.4-0.6,0.7-0.7c0.2-0.1,0.5-0.1,0.7,0.1c0.2,0.1,0.4,0.3,0.4,0.5C27.1,77.5,27.1,77.7,27,77.9z"/>
		<path class="st6" d="M34.1,77.3l-4.9-3.5L29,73.7c-0.9-0.6-1.2-1.1-1-1.5c0.2-0.4,1.4-0.3,3.5,0.2c3.8,0.9,9.8,2.9,17.9,5.9
			l0.2,0.1L40.1,72l-8.1-5.3c-0.4-0.4-0.4-0.9-0.1-1.3c0.3-0.5,0.8-0.5,1.6,0l0.2,0.1c0.2,0.3,0.4,0.5,0.7,0.7l10,6.8l8.4,5.5
			c0.3,0.2,0.5,0.4,0.7,0.8c0.2,0.3,0.2,0.6,0,0.8c-0.3,0.4-2.6-0.1-7.1-1.4c-4.5-1.3-9.3-2.9-14.3-4.6l9,5.9c0.9,0.6,2.2,1.4,4,2.4
			c1.8,1,3.2,1.8,4,2.4c0.2,0.1,0.2,0.3,0.2,0.6c0,0.3-0.1,0.6-0.3,0.9c-0.2,0.3-0.5,0.4-0.7,0.2l-1.9-1.4c-0.9-0.6-2.5-1.6-4.7-2.8
			c-2.2-1.3-3.5-2.1-4-2.4L34.1,77.3z"/>
		<path class="st6" d="M42.2,62.4l3.3,2.6l6.2,4.4l4.8,3.4c0.8,0.6,1.1,1.2,0.7,1.7c-0.2,0.3-0.5,0.4-0.9,0.3
			c-0.4-0.1-0.7-0.2-1.1-0.5l-4-3.4c-0.9-0.7-2.3-1.7-4.2-2.9c-1.9-1.3-3.3-2.2-4.2-2.9l-2.2-1.8c-1.2-1-2.1-1.5-2.6-1.6L37,63.2
			c-0.2,0.2-0.4,0.4-0.7,0.4c-0.3,0.1-0.5,0-0.7-0.1c-0.2-0.2-0.2-0.5-0.1-1c0.2-0.5,0.5-1.1,0.8-1.8c0.7-1.1,1.3-2.1,1.8-2.8
			c0.2-0.2,0.4-0.4,0.7-0.4c0.3-0.1,0.5,0,0.7,0.1c0.2,0.2,0.3,0.4,0.3,0.6c0,0.2-0.1,0.5-0.2,0.7L39,59.8c-0.1,0.1-0.2,0.2-0.2,0.3
			C39.9,60.8,41,61.5,42.2,62.4z"/>
		<path class="st6" d="M55.3,57c0.3,0,0.5,0,0.7,0.2c0.2,0.2,0.2,0.5,0,1c-0.2,0.5-0.5,1.1-1,1.7c-0.8,1.1-1.5,2-2,2.6
			c-0.2,0.2-0.4,0.3-0.7,0.4c-0.3,0-0.5,0-0.7-0.2c-0.2-0.2-0.2-0.5,0-1c0.2-0.5,0.5-1.1,1-1.7c0.8-1.1,1.4-2,2-2.6
			C54.8,57.2,55,57.1,55.3,57z"/>
		<path class="st6" d="M68.1,53.6l-0.8,1c-0.5,0.5-1,0.5-1.5,0.1c-0.4-0.4-0.1-1.1,0.8-2.2c0.2-0.2,0.4-0.4,0.6-0.7
			c0.2-0.2,0.6-0.3,1-0.2c0.4,0.1,0.8,0.3,1.2,0.8c0.4,0.4,1.1,1,2.1,1.8c1,0.8,1.7,1.4,2,1.7c0.5,0.6,0.6,1.1,0.2,1.4
			c-0.4,0.4-0.8,0.4-1.3,0.2l0,0c-0.1,0.1-0.1,0.4-0.3,0.8c-0.2,0.7-0.6,1.3-1.1,1.7c-0.3,0.3-0.8,0.6-1.2,0.8c-1,0.4-2,0.4-3.1,0.1
			c-1.1-0.3-2-0.8-2.8-1.3s-1.3-1-1.7-1.3c-0.4-0.3-0.9-0.7-1.4-1.2c-0.6-0.6-1.4-1.3-2.2-2.2l-1.7-1.8c-1.4-1.5-2.4-2.7-3-3.5
			c-0.5-0.8-0.9-1.4-1.2-1.9c-0.3-0.5-0.5-1-0.7-1.5c-0.2-0.5-0.3-0.9-0.4-1.4c-0.1-0.5-0.1-1,0-1.4c0.1-1,0.6-1.8,1.3-2.5
			c0.7-0.7,1.3-0.8,1.7-0.3c0.2,0.2,0.2,0.4,0.2,0.6s-0.1,0.4-0.3,0.6L54,42.1c-0.6,0.6-0.7,1.4-0.4,2.4c0.4,1.1,0.8,2.1,1.4,2.9
			c0.6,0.8,1,1.4,1.4,1.9c0.3,0.5,0.8,1,1.3,1.6c0.7,0.8,1.4,1.6,2.1,2.3l1.4,1.5c1.4,1.5,2.5,2.6,3.3,3.1c0.7,0.5,1.4,0.9,1.9,1.1
			c0.5,0.3,1,0.4,1.4,0.5c1.1-0.1,2-0.4,2.5-0.8c0.7-0.7,1-1.6,0.8-2.7C69.7,54.6,68.7,53.8,68.1,53.6z"/>
		<path class="st6" d="M63.3,35.2l-0.5,0.4c-0.2,0.1-0.3,0.3-0.3,0.4c0,0.1,0.1,0.3,0.2,0.5c1.4,1.6,3.5,4,6.4,7.1
			c2.9,3.1,5.1,5.5,6.4,7.1l0.8,1c0.2-0.2,0.3-0.3,0.5-0.5c0.7-0.6,1.3-0.6,1.8,0l0.1,0.1l-0.3,1l-1.7,1.5c-1.5,1.2-2.4,1.6-2.8,1.1
			c-0.3-0.4-0.2-0.8,0.3-1.2l0.6-0.4c0.2-0.2,0.2-0.5-0.1-0.9c-1.1-1.3-2.8-3.2-5.1-5.6c-2.3-2.5-4-4.3-5.1-5.6l-2.1-2.6
			c-0.4-0.5-0.9-1-1.2-1.4c-0.2,0.3-0.3,0.5-0.5,0.6c-0.4,0.3-0.8,0.3-1.1-0.1c-0.2-0.2-0.2-0.5-0.1-0.9c0.1-0.4,0.4-0.7,0.7-1.1
			c0.6-0.7,1.1-1.2,1.4-1.5c0.3-0.3,0.6-0.4,0.9-0.4c0.3,0,0.5,0.1,0.6,0.3c0.2,0.2,0.2,0.4,0.2,0.6C63.6,34.9,63.5,35.1,63.3,35.2z
			"/>
		<path class="st6" d="M74.5,40.1l0.6,0.8l0.1,0.1c1.2,1.5,2.9,3.8,5.1,6.8l0.5,0.7l2-1.5c0.6,0,0.9,0.1,1.1,0.3
			c0.2,0.2,0.2,0.5,0.2,0.7c0,0.2-0.1,0.4-0.2,0.5c-0.1,0.1-0.3,0.2-0.5,0.3c-0.1,0.1-0.3,0.3-0.5,0.4l-0.9,0.6
			c0,0.3-0.2,0.6-0.4,0.8c-0.3,0.2-0.6,0.3-0.9,0.2c-0.3,0-0.5-0.2-0.7-0.4l-0.7-1.3c-1.5-2-3.8-5-6.9-8.8c-3.1-3.9-5.4-6.8-6.9-8.8
			c-0.1-0.2-0.2-0.3-0.1-0.5c0.1-0.2,0.2-0.4,0.4-0.5c0.2-0.1,0.4-0.2,0.7-0.2c0.3,0,0.5,0.2,0.6,0.4L74.5,40.1z"/>
		<path class="st6" d="M80.5,36l0.6,0.9l0.1,0.1c1.1,1.5,2.7,3.9,4.8,7.1l0.5,0.7l2.1-1.4c0.6,0,0.9,0.1,1.1,0.4
			c0.2,0.2,0.2,0.5,0.2,0.7c0,0.2-0.1,0.4-0.3,0.5c-0.1,0.1-0.3,0.2-0.6,0.2c-0.1,0.1-0.3,0.3-0.5,0.4l-0.9,0.5
			c0,0.3-0.2,0.6-0.5,0.8c-0.3,0.2-0.6,0.3-0.9,0.2c-0.3,0-0.5-0.2-0.7-0.4l-0.6-1.3c-1.4-2.1-3.5-5.1-6.4-9.2c-2.9-4-5-7.1-6.4-9.2
			c-0.1-0.2-0.1-0.3-0.1-0.5c0.1-0.2,0.2-0.4,0.4-0.5c0.2-0.1,0.4-0.2,0.7-0.1c0.3,0,0.5,0.2,0.6,0.4L80.5,36z"/>
		<path class="st6" d="M88.3,31.7L87.6,32c-0.3,0.2-0.4,0.3-0.5,0.5l5.1,8.8c0.9-0.6,1.5-0.9,1.5-1c1.1-0.6,1.8-0.7,2.1-0.2l0.1,0.1
			c0,0.3-0.1,0.7-0.3,1c-0.2,0.3-0.5,0.6-0.7,0.7c-0.2,0.2-0.5,0.3-0.9,0.6L93,43c-0.7,0.4-1.2,0.5-1.5,0.3
			c-0.1-0.1-0.3-0.2-0.4-0.4l-9.5-16.5c-0.2-0.3-0.5-0.8-1-1.3c-0.5-0.6-0.8-1-1-1.3l-0.1-0.1c0-0.7,0.1-1.2,0.1-1.4l2-1.5
			c0.3-0.2,0.6-0.2,1-0.2c0.4,0,0.7,0.1,0.8,0.4c0.3,0.6,0.1,1.1-0.8,1.6L81.7,23c-0.1,0.1-0.2,0.1-0.3,0.2l2.9,4.6
			c0.2,0.4,0.5,0.9,0.9,1.7c0.4,0.8,0.7,1.3,0.8,1.6c0.1-0.1,0.2-0.2,0.4-0.3c0.3-0.3,0.6-0.6,0.8-0.7c0.2-0.1,0.5-0.2,0.7-0.1
			s0.5,0.2,0.6,0.4c0.1,0.2,0.2,0.5,0.1,0.7C88.6,31.3,88.5,31.5,88.3,31.7z"/>
		<path class="st6" d="M96.6,40.3c-0.3-0.5-0.2-0.9,0.3-1.1c0.2-0.1,0.5-0.2,1-0.2c0.4,0,0.8-0.1,1-0.2c0.3-0.1,0.5-0.4,0.6-0.9
			c0.1-0.5,0.2-1,0.1-1.6c-0.2-1.2-0.4-2.2-0.8-3c-0.4-0.8-1-1.6-1.7-2.4c-0.8-0.8-1.5-1.5-2.4-2.1c-0.8-0.6-1.6-1.2-2.5-1.8
			c-2-1.5-3.4-3-4.2-4.6c-0.8-1.5-0.9-3-0.4-4.3c0.3-0.7,0.8-1.2,1.5-1.6c0.4-0.2,0.7-0.3,1.2-0.2c0.4,0,0.8,0.2,1.1,0.4l-0.2,0.9
			c-0.5,0.2-0.9,0.3-1.3,0.3c-0.3,0.2-0.6,0.5-0.7,1c-0.2,0.8-0.1,1.6,0.3,2.4c0.4,0.8,0.9,1.6,1.5,2.3c0.6,0.7,1.2,1.2,1.8,1.7
			c0.6,0.5,1.3,1,2,1.5c0.7,0.5,1.4,1.1,2.1,1.6c1.5,1.2,2.7,2.7,3.6,4.5c0.6,1.3,0.9,2.6,0.9,4.1c0,0.7-0.2,1.4-0.6,2
			c-0.4,0.6-0.9,1.1-1.5,1.4c-0.7,0.4-1.3,0.5-1.8,0.5C97,40.7,96.7,40.5,96.6,40.3z"/>
	</g>
	<g>
		<path class="st7" d="M284,112.6l2.1-0.6l0.8-0.2c3.5-1,5.9-1.5,7.4-1.5c1.8-0.1,3.1,0.2,3.9,0.7c1.2,0.7,1.9,1.8,2.4,3.3
			c0.1,0.4,0.1,0.6,0,0.9c-0.1,0.2-0.3,0.4-0.5,0.4c-0.2,0.1-0.5,0.1-0.7,0c-0.2-0.1-0.4-0.2-0.4-0.4l-0.4-1.6
			c-0.1-0.5-0.6-0.8-1.3-1c-0.7-0.2-1.5-0.2-2.5-0.1c-1.8,0.2-3.2,0.4-4.3,0.8l-0.2,0l-6.8,1.7c-1.4,0.4-2.4,0.8-2.9,1.1
			c-0.5,0.3-0.9,0.6-1.2,0.8c-0.3,0.3-0.5,0.5-0.7,0.8c-0.4,0.6-0.4,1.4-0.2,2.2c0.1,0.3,0.2,0.5,0.5,0.6c0.1,0.3,0.1,0.5,0,0.8
			c-0.1,0.2-0.2,0.4-0.5,0.5c-0.9,0.3-1.6-0.2-1.9-1.5c-0.1-0.5-0.2-1.1-0.2-1.7c0-0.6,0.1-1.1,0.2-1.4
			C276.9,115.4,279.5,113.8,284,112.6z"/>
		<path class="st7" d="M290,122.5l-3.9,0.7c-3.2,0.6-5.6,1.4-7.3,2.2l-1-0.2l-0.2-1l0.4-0.6c1.1-0.2,2.3-0.4,3.6-0.7
			c1.3-0.3,4.2-0.9,8.5-2c4.3-1.1,7.6-1.8,9.7-2.3c1.1-0.2,1.8,0,1.9,0.8c0.2,1.2,0.1,2.3-0.4,3.2c-0.5,1-1.3,1.6-2.6,1.8l-2.5,0.5
			c-0.7,0.1-1.3,0.1-2,0c-0.6-0.1-1.3-0.3-2-0.5c-0.7-0.2-1.1-0.3-1.2-0.3c-0.6,0.2-1.7,0.7-3.3,1.3c-3.6,1.4-6.1,2.7-7.6,3.9
			c-0.4,0.3-0.8,0.5-1,0.6c-0.3,0.1-0.5,0-0.7-0.1c-0.2-0.1-0.3-0.3-0.4-0.5c-0.1-0.5,0.4-1.1,1.4-1.7c1.1-0.7,2.3-1.3,3.6-1.8
			c4.1-1.7,6.4-2.7,6.8-2.9L290,122.5z M300.6,120.5l-0.5,0c-1,0.2-2.4,0.5-4.2,0.9c-1.8,0.4-3.2,0.7-4,0.9c0.4,0.5,1.2,0.8,2.5,0.8
			c1.3,0.1,2.3,0.1,2.9-0.1c0.7-0.1,1.1-0.2,1.4-0.3c0.3-0.1,0.6-0.2,1-0.4C300.5,121.9,300.8,121.3,300.6,120.5z"/>
		<path class="st7" d="M297.6,129.3l3-0.6c1.7-0.2,2.6,0.2,2.8,1.1c0.1,0.6,0,1.5-0.1,2.6c-0.2,1.1-0.5,1.7-1,1.8
			c-0.5,0.1-0.9-0.2-1.3-0.9c0.2-1.1,0.4-2,0.4-2.7c-0.5,0.1-1,0.2-1.6,0.3l-5.2,0.5c0,0-0.2,0.1-0.6,0.2l0.2,1.2
			c0.1,1.1-0.1,1.7-0.8,1.8c-0.3,0-0.5,0-0.7-0.2c-0.2-0.2-0.4-0.4-0.4-0.7c0-0.3-0.1-0.7-0.1-1l-0.1-0.9c-0.9,0.2-1.8,0.3-2.7,0.5
			l-6.6,0.7c-1.4,0.2-2,0.3-2,0.3l0.4,2.6c0.1,0.9-0.1,1.4-0.7,1.4c-0.4,0-0.7-0.1-0.9-0.4c-0.2-0.3-0.3-0.6-0.4-1l-0.4-3
			c0-0.3,0-0.6,0.2-0.9c0.2-0.3,0.4-0.4,0.7-0.5l1-0.1l6.1-1L297.6,129.3z M305.8,129.8c0.1-0.1,0.2-0.2,0.3-0.2
			c0.1,0,0.4,0.1,0.7,0.4c0.4,0.3,1.1,0.9,2.3,1.9c1.2,1,1.9,1.6,2.1,1.8c0.1,0.1,0.1,0.3,0.1,0.5c0,0.2-0.1,0.4-0.4,0.7
			c-0.3,0.3-0.5,0.4-0.8,0.5c-0.3,0-0.5,0-0.6-0.2c-0.8-0.8-2-2.4-3.7-4.7c-0.1-0.1-0.1-0.2-0.1-0.3
			C305.7,130,305.7,129.9,305.8,129.8z"/>
		<path class="st7" d="M288,146l-2.2,0.5c-0.3,0-1,0.2-2.2,0.4c-1.1,0.3-1.9,0.4-2.2,0.4l0,0c-0.5,0-0.9-0.2-1.1-0.5
			c0-0.5,0-0.9,0.2-1.2c0.2-0.3,0.5-0.4,0.9-0.5c1-0.1,2.5-0.3,4.5-0.7l0.4-3.5c-0.8-0.2-1.7-0.3-2.7-0.4c-1-0.1-1.7-0.1-2.1-0.2
			c-0.9-0.2-1.4-0.5-1.4-1.1c0-0.3,0.1-0.5,0.2-0.8s0.4-0.4,0.7-0.4l0.3,0.1c6.4,1.3,12.6,2.1,18.7,2.6c0.2,0,0.7,0,1.5,0
			c1.8,0,2.9,0.2,3.4,0.5l0.1,1.2c0,0.3,0,0.6-0.2,0.9c-0.1,0.2-0.4,0.4-0.7,0.4c-1.9,0.1-4.6,0.5-8.2,1.1
			C292.2,145.6,289.6,145.9,288,146z M287.1,144.2c0.4-0.1,1-0.2,1.9-0.2c0.9,0,2-0.1,3.3-0.3c1.3-0.2,2.8-0.4,4.6-0.6
			c1.7-0.3,3-0.5,3.8-0.6c-6.2-0.8-10.5-1.2-13.1-1.4C287.3,141.5,287.2,142.5,287.1,144.2z"/>
		<path class="st7" d="M281.1,151.3l2.8,0c0,0,0.4,0,1.2,0.1c0.3-0.1,3.1-0.2,8.3-0.4s8.4-0.2,9.5-0.2c0,0,0-0.1,0-0.1
			c0.1-1.9,0.5-2.8,1.2-2.8c0.2,0,0.4,0.1,0.6,0.4c0.1,0.3,0.2,0.5,0.2,0.7l-0.4,4.8l0,0.6c0,0.7-0.3,1.1-0.9,1.1
			c-0.3,0-0.5-0.1-0.7-0.4c-0.2-0.2-0.3-0.5-0.3-0.8l0.3-1.6l-0.4-0.1c-2.3,0-5.8,0.1-10.4,0.4c-4.6,0.3-8.1,0.4-10.4,0.4
			c-0.3,0-0.5-0.1-0.8-0.4c-0.2-0.3-0.3-0.5-0.3-0.8L281.1,151.3z"/>
		<path class="st7" d="M292.1,160.9l-7.8-0.5l-1.1-0.1l-1-0.1l0,0.5l-0.1,1c-0.1,1-0.4,1.4-1,1.4c-0.3,0-0.6-0.2-0.8-0.4
			c-0.2-0.3-0.3-0.5-0.3-0.8l0.1-1.5c0.1-1.1,0.2-1.7,0.3-2c0-0.2,0-0.3,0-0.4c0.1-0.8,0.4-1.2,0.9-1.2c0.2,0,0.4,0.1,0.6,0.3
			c0.2,0.2,0.3,0.3,0.3,0.4l-0.1,1l0.5,0.1l7.8,0.5l8.1,0.9c1.4,0.1,2.7,0.2,3.9,0.2l0.1-0.7l0-0.8c0-0.3,0.1-0.6,0.3-0.8
			c0.2-0.2,0.4-0.3,0.8-0.2c0.6,0.1,0.8,0.7,0.7,1.8l-0.4,4.2c-0.1,0.9-0.4,1.4-0.9,1.4c-0.2,0-0.4-0.1-0.6-0.4
			c-0.2-0.2-0.2-0.5-0.2-0.7l0.2-1.8c-1,0-2.1-0.1-3.4-0.2L292.1,160.9z"/>
		<path class="st7" d="M283.1,169.5c2.6,1,6.3,2.2,11.2,3.8c4.9,1.6,7.7,2.5,8.5,2.8l-0.1,0.8c0,0.2-0.1,0.4-0.3,0.5
			c-0.2,0.1-0.4,0.2-0.6,0.2c-1.4-0.2-3-0.8-5-1.7c-2-0.9-3.2-1.4-3.8-1.6c-0.6-0.2-1.5-0.5-2.8-0.8c-1.3-0.3-2.6-0.7-3.9-1
			c-1.3-0.3-2.5-0.7-3.8-1.2c-1.3-0.4-2.3-0.9-3.1-1.5c-0.8-0.6-1.1-1.1-1-1.7l0.7-0.6c2.9,0.5,6,0.7,9.1,0.7c3.1,0,5.8-0.1,7.9-0.3
			c2.2-0.2,3.5-0.3,4.1-0.4c1.4-0.2,2.2-0.3,2.5-0.2c0.3,0.1,0.5,0.2,0.7,0.4c0.1,0.2,0.2,0.4,0.1,0.6c-0.1,0.6-1.4,1.1-3.8,1.3
			c-2.4,0.2-4.6,0.3-6.7,0.2c-2.1,0-3.6-0.1-4.7-0.1c-1.1,0-2.2-0.1-3.3-0.1C284,169.6,283.3,169.5,283.1,169.5z"/>
		<path class="st7" d="M288.6,181.5l-7.6-1.7l-1.1-0.3l-1-0.3l-0.1,0.5l-0.2,1c-0.2,0.9-0.6,1.3-1.2,1.2c-0.3-0.1-0.5-0.2-0.7-0.5
			c-0.2-0.3-0.2-0.6-0.1-0.9l0.4-1.5c0.2-1,0.4-1.7,0.5-2c0-0.2,0-0.3,0.1-0.4c0.2-0.8,0.6-1.2,1.1-1c0.2,0.1,0.4,0.2,0.6,0.4
			c0.2,0.2,0.2,0.3,0.2,0.5l-0.2,1l0.5,0.2l7.6,1.6l7.9,2.1c1.4,0.3,2.6,0.6,3.9,0.8l0.2-0.7l0.2-0.8c0.1-0.3,0.2-0.6,0.4-0.7
			c0.2-0.2,0.5-0.2,0.8-0.1c0.5,0.1,0.7,0.8,0.4,1.9l-1,4.1c-0.2,0.9-0.6,1.3-1.1,1.2c-0.2-0.1-0.4-0.2-0.5-0.4
			c-0.1-0.2-0.2-0.5-0.1-0.8l0.4-1.8c-1-0.1-2.1-0.4-3.3-0.7L288.6,181.5z"/>
		<path class="st7" d="M275.3,186.3l2.7,0.7c0,0,0.4,0.1,1.2,0.4c0.3,0,3,0.6,8.1,1.8c5.1,1.2,8.1,2,9.2,2.3c0,0,0-0.1,0-0.1
			c0.6-1.8,1.2-2.6,1.9-2.4c0.2,0.1,0.4,0.2,0.4,0.5c0.1,0.3,0.1,0.5,0,0.8l-1.7,4.5l-0.1,0.5c-0.2,0.7-0.6,1-1.2,0.8
			c-0.3-0.1-0.5-0.3-0.6-0.6c-0.1-0.3-0.1-0.6,0-0.9l0.7-1.5l-0.3-0.2c-2.2-0.7-5.6-1.5-10.1-2.4c-4.5-1-7.9-1.8-10.1-2.4
			c-0.3-0.1-0.5-0.3-0.6-0.6c-0.1-0.3-0.2-0.6-0.1-0.9L275.3,186.3z"/>
		<path class="st7" d="M290.5,197.3l3,0.9c1.6,0.6,2.3,1.3,1.9,2.3c-0.2,0.6-0.6,1.4-1.3,2.3c-0.7,0.9-1.2,1.3-1.7,1.1
			c-0.5-0.2-0.7-0.6-0.7-1.4c0.7-0.9,1.2-1.7,1.6-2.3c-0.5-0.1-1-0.3-1.5-0.5l-4.9-1.9c0,0-0.2,0-0.6-0.1l-0.4,1.2
			c-0.4,1.1-0.9,1.5-1.5,1.3c-0.2-0.1-0.4-0.3-0.5-0.5c-0.1-0.3-0.1-0.5,0-0.8c0.1-0.3,0.2-0.6,0.4-0.9l0.3-0.8
			c-0.9-0.2-1.8-0.5-2.6-0.8l-6.2-2.4c-1.3-0.5-1.9-0.7-2-0.6l-0.8,2.5c-0.3,0.8-0.7,1.2-1.3,1c-0.3-0.1-0.5-0.4-0.6-0.7
			c-0.1-0.3,0-0.7,0.1-1.1l1-2.8c0.1-0.3,0.3-0.5,0.6-0.7c0.3-0.2,0.6-0.2,0.9-0.1l0.9,0.3l5.9,1.9L290.5,197.3z M297.6,201.5
			c0.1-0.1,0.3-0.1,0.4,0c0.1,0,0.3,0.3,0.5,0.7c0.2,0.4,0.6,1.3,1.1,2.8c0.6,1.4,0.9,2.3,1.1,2.6c0,0.1,0,0.3-0.1,0.5
			c-0.1,0.2-0.3,0.3-0.6,0.4c-0.4,0.1-0.7,0.1-1,0c-0.3-0.1-0.4-0.2-0.5-0.4c-0.3-1.1-0.7-3-1.2-5.9c0-0.1,0-0.2,0-0.3
			S297.5,201.5,297.6,201.5z"/>
	</g>
	<g>
		<path class="st8" d="M46.2,232.2l-0.5,0.5c-1.2,1-2.9,1.8-5.1,2.4c-2.5,0.7-4.5,0.9-6.1,0.5c-0.9-0.2-1.6-0.6-2.1-1.2
			c-0.2-0.3-0.4-0.7-0.5-1c-0.1-0.4,0.1-0.7,0.4-0.9c0.7,0.1,1.9-0.5,3.5-1.8c1-0.7,2.3-1.9,4.1-3.6c1.8-1.6,3.1-2.8,4.1-3.6
			l2.9-2.1c0.5-0.4,1-0.9,1.6-1.7c0.6-0.8,1.1-1.3,1.4-1.6c0.6-0.5,1.4,0,2.4,1.3l0.3,0.4c1.4,1.8,1.4,3.8,0,6.1
			c-0.9,1.6-2.6,3.4-5,5.3l-1.2,0.9C46.4,232.1,46.3,232.1,46.2,232.2z M36.9,231.8l-2.5,1.9c0.9,0.3,2,0.4,3.1,0.3
			c1.1-0.1,2.2-0.4,3.3-0.8c2.1-0.9,4-2,5.7-3.3c2-1.5,3.3-3,4.1-4.3c0.8-1.4,1.1-2.6,0.9-3.6c-0.1-0.6-0.4-1.2-0.9-1.8l0,0
			c-1.6,1.2-3.8,3.1-6.8,5.8C40.8,228.6,38.5,230.6,36.9,231.8z"/>
		<path class="st8" d="M51.3,231.2l2-2c1.2-1,2-1.2,2.7-0.5c0.4,0.4,0.8,1.1,1.3,2.1c0.5,0.9,0.5,1.6,0.2,1.8
			c-0.3,0.3-0.8,0.3-1.4,0c-0.4-1-0.8-1.7-1.2-2.3c-0.3,0.3-0.7,0.7-1,1l-3.6,3c0,0-0.1,0.2-0.3,0.4l0.8,0.8
			c0.7,0.8,0.8,1.4,0.4,1.8c-0.2,0.2-0.4,0.2-0.7,0.2c-0.3,0-0.5-0.2-0.7-0.4c-0.2-0.2-0.4-0.5-0.6-0.8l-0.5-0.6
			c-0.6,0.6-1.2,1.2-1.8,1.7l-4.6,3.8c-0.9,0.8-1.4,1.2-1.3,1.3l1.7,1.8c0.5,0.6,0.6,1.1,0.2,1.5c-0.2,0.2-0.5,0.3-0.8,0.1
			c-0.3-0.1-0.6-0.3-0.8-0.6l-1.8-2.1c-0.2-0.2-0.3-0.5-0.3-0.8c0-0.3,0.1-0.6,0.3-0.7l0.7-0.6l4-3.8L51.3,231.2z M57.7,227.5
			c0-0.1,0-0.2,0.1-0.3c0.1-0.1,0.3-0.1,0.8-0.1c0.4,0,1.3,0.2,2.7,0.4c1.4,0.2,2.2,0.3,2.5,0.4c0.1,0.1,0.2,0.2,0.3,0.3
			c0.1,0.1,0.1,0.4,0.1,0.7s-0.2,0.6-0.4,0.8c-0.2,0.2-0.4,0.2-0.6,0.2c-1-0.2-2.8-0.8-5.2-1.8c-0.1,0-0.2-0.1-0.2-0.2
			C57.7,227.7,57.7,227.6,57.7,227.5z"/>
		<path class="st8" d="M49.4,242.1l1.4-1.3l0.6-0.5c2.3-2.2,4-3.7,5.2-4.3c1.4-0.8,2.5-1.2,3.4-1.1c1.2,0.1,2.4,0.6,3.4,1.7
			c0.2,0.2,0.4,0.5,0.4,0.7c0,0.2-0.1,0.4-0.2,0.6c-0.2,0.2-0.4,0.2-0.6,0.3c-0.2,0-0.4,0-0.6-0.2l-1.1-1.1
			c-0.3-0.3-0.8-0.4-1.4-0.2c-0.6,0.2-1.3,0.5-2,1c-1.3,0.9-2.4,1.7-3.1,2.4l-0.1,0.1l-4.6,4.3c-1,0.9-1.6,1.6-1.8,2.1
			c-0.3,0.5-0.5,0.9-0.6,1.2c-0.1,0.3-0.2,0.6-0.2,0.9c0,0.7,0.3,1.3,0.8,1.8c0.2,0.2,0.4,0.3,0.7,0.3c0.2,0.2,0.3,0.4,0.4,0.6
			c0.1,0.2,0,0.4-0.2,0.6c-0.6,0.6-1.4,0.5-2.2-0.4c-0.3-0.4-0.6-0.8-0.9-1.3c-0.3-0.5-0.4-0.9-0.5-1.2
			C45.1,247.4,46.4,245.1,49.4,242.1z"/>
		<path class="st8" d="M56.8,246.7l0.9-0.9c0.1-0.1,0.1-0.1,0.1-0.2l0.4-0.4c2.3-2.5,4.1-4.2,5.4-5c1.1-0.7,1.8-1,2.2-1
			c0.4,0,0.7,0.1,1,0.3c1.9,1.7,2.3,3.8,1.3,6.4c-0.6,1.5-1.6,3-3.1,4.6l-0.2,0.2l-2.5,2.8c-4.2,4.6-7.4,6-9.6,4
			c-0.9-0.8-1.1-1.9-0.7-3.3c0.4-1.4,1-2.5,1.7-3.5C54.9,249,55.9,247.7,56.8,246.7z M61.3,244.7l-2.2,2.1c-2.1,2.3-3.8,4.6-5,6.6
			c-0.5,1.4-0.7,2.3-0.5,2.8c0.3,0.3,0.7,0.4,1.1,0.4c0.5,0,0.9-0.2,1.4-0.4c0.5-0.3,1-0.6,1.5-0.9c0.5-0.4,1-0.8,1.5-1.2
			c0.9-0.8,1.6-1.5,2.1-2.1c0.6-0.6,1.4-1.6,2.4-2.9c1-1.4,1.8-2.3,2.4-2.9l0.4-0.4c0.5-0.6,0.8-1.3,0.9-2.1c0.1-0.8-0.2-1.5-0.8-2
			c-0.6-0.5-1.2-0.5-2-0.1c-0.6,0.4-1.3,1-2,1.7L61.3,244.7z"/>
		<path class="st8" d="M74.1,255.4l-0.3,0.5c-6,7.6-10.1,10.5-12.4,8.8c-0.9-0.7-1.2-1.5-1.1-2.5c0.1-1.1,0.5-2,0.9-2.8
			c0.7-1.2,1.6-2.5,2.7-4c1.1-1.4,2.7-3.5,4.8-6.2l2.8-3.8c0.4-0.2,0.8-0.3,1-0.1c0.2,0.2,0.3,0.5,0.2,0.9c-0.1,0.4-0.3,0.8-0.6,1.2
			l-5.5,7c-0.5,0.6-1.1,1.6-2,2.9c-0.8,1.3-1.5,2.3-2,2.9c-1,1.3-0.9,2.3,0.1,3.2c1.2,1,5.5-3.2,12.8-12.4l1.1-1.4l0.3-0.4
			c0.2-0.2,0.3-0.3,0.5-0.3c0.2,0,0.4,0,0.6,0.2c0.2,0.2,0.4,0.4,0.4,0.5c0.1,0.2,0.1,0.3,0,0.5c-0.1,0.3-0.3,0.6-0.5,0.9l-2.2,2.4
			L74.1,255.4z"/>
		<path class="st8" d="M73.7,268.1c1.7-1.7,4.2-4.3,7.3-7.7c3.1-3.4,5-5.4,5.5-5.9l0.6,0.4c0.2,0.1,0.3,0.3,0.3,0.5
			c0.1,0.2,0,0.4-0.1,0.6c-0.7,1-1.8,2.2-3.2,3.4c-1.5,1.3-2.4,2.1-2.8,2.5c-0.4,0.4-0.9,1.1-1.7,2c-0.8,0.9-1.5,1.9-2.3,2.8
			c-0.8,0.9-1.6,1.8-2.4,2.7c-0.9,0.9-1.6,1.5-2.4,1.9c-0.7,0.4-1.3,0.5-1.8,0.2l-0.2-0.8c1.5-2.2,2.8-4.6,3.9-7.2
			c1.1-2.6,2-4.8,2.7-6.6c0.6-1.8,1-3,1.2-3.5c0.3-1.2,0.6-1.9,0.8-2.2c0.2-0.2,0.4-0.4,0.6-0.4c0.2,0,0.4,0,0.6,0.1
			c0.5,0.3,0.4,1.5-0.3,3.6c-0.7,2.1-1.5,3.9-2.3,5.6c-0.8,1.7-1.4,3-1.8,3.8c-0.4,0.9-0.9,1.8-1.3,2.6
			C74,267.4,73.8,268,73.7,268.1z"/>
		<path class="st8" d="M86.2,261.1l1.2-2.5c0.8-1.3,1.6-1.8,2.4-1.3c0.5,0.3,1.1,0.8,1.9,1.6c0.7,0.7,1,1.3,0.8,1.7
			c-0.2,0.4-0.7,0.5-1.3,0.4c-0.7-0.8-1.3-1.4-1.8-1.8c-0.2,0.4-0.4,0.8-0.7,1.2l-2.5,4c0,0-0.1,0.2-0.2,0.5l1,0.5
			c0.9,0.5,1.2,1.1,0.9,1.6c-0.1,0.2-0.3,0.3-0.6,0.4c-0.3,0.1-0.5,0-0.8-0.1c-0.3-0.1-0.5-0.3-0.8-0.5l-0.7-0.4
			c-0.4,0.8-0.7,1.5-1.2,2.2l-3.1,5.1c-0.6,1.1-0.9,1.6-0.9,1.6l2.1,1.1c0.7,0.4,0.9,0.9,0.7,1.3c-0.2,0.3-0.4,0.4-0.7,0.4
			c-0.3,0-0.6-0.1-1-0.3l-2.4-1.4c-0.2-0.1-0.4-0.4-0.5-0.6s-0.1-0.6,0-0.8l0.4-0.7l2.6-4.9L86.2,261.1z"/>
		<path class="st8" d="M91.1,270.2l-1.6,3.2c-1.3,2.6-2.1,4.7-2.5,6.4l-0.7,0.6l-0.8-0.4l-0.2-0.6c0.5-0.9,0.9-1.9,1.5-3
			c0.5-1.1,1.6-3.5,3.2-7.2c1.6-3.7,2.8-6.4,3.7-8.2c0.5-0.9,1-1.2,1.7-0.9c1,0.5,1.8,1.2,2.2,2.1c0.4,0.9,0.4,1.8-0.1,2.8l-1,2.1
			c-0.3,0.6-0.6,1-1.1,1.4c-0.4,0.4-0.9,0.7-1.5,1.1c-0.5,0.4-0.8,0.6-0.9,0.6c-0.1,0.5-0.4,1.6-0.8,3.1c-0.9,3.3-1.4,5.9-1.3,7.5
			c0,0.5,0,0.8-0.1,1c-0.1,0.2-0.3,0.4-0.4,0.5c-0.2,0.1-0.4,0.1-0.6,0c-0.4-0.2-0.6-0.9-0.5-2c0.1-1.1,0.3-2.3,0.6-3.6
			c1-3.9,1.6-6,1.6-6.4L91.1,270.2z M95.5,261.6l-0.3,0.4c-0.4,0.8-0.9,2-1.7,3.5c-0.7,1.5-1.2,2.7-1.6,3.3c0.6,0,1.3-0.5,2-1.3
			c0.8-0.9,1.3-1.6,1.6-2.1c0.3-0.5,0.4-0.9,0.5-1.2c0.1-0.3,0.2-0.6,0.2-0.9C96.4,262.5,96.2,262,95.5,261.6z"/>
		<path class="st8" d="M94.8,283.5l0.9-2.3c0,0,0.2-0.3,0.5-1c0-0.3,0.8-2.6,2.4-7c1.6-4.4,2.5-7.1,2.9-8c0,0-0.1,0-0.1,0
			c-1.6-0.7-2.3-1.4-2.1-1.9c0.1-0.2,0.3-0.3,0.5-0.3c0.3,0,0.5,0,0.7,0.1l4,2l0.5,0.2c0.6,0.3,0.8,0.6,0.6,1.1
			c-0.1,0.2-0.3,0.4-0.6,0.5c-0.3,0.1-0.5,0-0.8-0.1l-1.3-0.8l-0.2,0.3c-0.8,1.9-1.8,4.8-3.1,8.8c-1.3,4-2.3,6.9-3.1,8.8
			c-0.1,0.2-0.3,0.4-0.6,0.5c-0.3,0.1-0.6,0.1-0.8,0L94.8,283.5z"/>
		<path class="st8" d="M105.7,270.5l0.7-2.7c0.5-1.5,1.2-2.1,2-1.8c0.6,0.2,1.3,0.6,2.2,1.1c0.9,0.6,1.2,1.1,1.1,1.5
			c-0.1,0.4-0.6,0.7-1.2,0.7c-0.9-0.6-1.6-1.1-2.2-1.4c-0.1,0.5-0.2,0.9-0.4,1.4l-1.6,4.4c0,0,0,0.2-0.1,0.5l1.1,0.3
			c1,0.3,1.4,0.8,1.2,1.4c-0.1,0.2-0.2,0.4-0.5,0.5c-0.2,0.1-0.5,0.1-0.8,0c-0.3-0.1-0.6-0.2-0.9-0.4l-0.8-0.3
			c-0.2,0.8-0.4,1.6-0.7,2.4l-2,5.6c-0.4,1.2-0.6,1.8-0.5,1.8l2.3,0.7c0.8,0.3,1.1,0.6,0.9,1.2c-0.1,0.3-0.3,0.5-0.6,0.5
			c-0.3,0.1-0.7,0-1-0.1l-2.6-0.9c-0.3-0.1-0.5-0.3-0.7-0.5c-0.2-0.3-0.2-0.5-0.1-0.8l0.3-0.8l1.5-5.3L105.7,270.5z"/>
	</g>
</g>
</svg>
